<svg xmlns="http://www.w3.org/2000/svg" width="16" height="16" viewBox="0 0 16 16"><g fill="none" fill-rule="evenodd"><path fill="#000" d="M1 7V0h1.515v2.755h2.97V0H7v7H5.485V3.94h-2.97V7H1Zm8 0V0h1.486l3.095 4.675V0H15v7h-1.532l-3.05-4.565V7H9Z"/><path fill="#000" d="M5.806 15.845V14.84C5.24 15.613 4.467 16 3.492 16c-.43 0-.832-.077-1.205-.232-.373-.155-.65-.35-.83-.583a2.117 2.117 0 0 1-.381-.86c-.05-.229-.076-.59-.076-1.084V9h1.236v3.797c0 .605.025 1.014.075 1.224.078.305.243.545.495.719.252.174.563.26.934.26.37 0 .718-.088 1.043-.267.325-.178.555-.42.69-.728.135-.307.203-.753.203-1.337V9H7v6.845H5.806Zm8.017-2.153 1.14.145c-.18.685-.513 1.217-.999 1.595-.486.379-1.107.568-1.863.568-.952 0-1.707-.302-2.264-.905-.558-.603-.837-1.45-.837-2.538 0-1.127.282-2.001.846-2.624C10.41 9.311 11.14 9 12.04 9c.87 0 1.581.305 2.133.914.551.61.827 1.468.827 2.573 0 .068-.002.169-.006.303H10.14c.04.736.243 1.3.607 1.69.363.391.817.587 1.36.587.405 0 .75-.11 1.036-.328.286-.219.513-.568.68-1.047ZM10 12h4c-.054-.586-.207-1.025-.459-1.318-.386-.455-.888-.682-1.504-.682-.558 0-1.026.181-1.406.544-.38.363-.59.848-.631 1.456Z"/></g></svg>
